<mxfile host="app.diagrams.net" modified="2023-10-10T23:26:37.921Z" agent="Mozilla/5.0 (Macintosh; Intel Mac OS X 10_15_7) AppleWebKit/537.36 (KHTML, like Gecko) Chrome/117.0.0.0 Safari/537.36" etag="6DxCcb9eZtJnqNt3Ekqk" version="22.0.0" type="device">
  <diagram id="R2lEEEUBdFMjLlhIrx00" name="Page-1">
    <mxGraphModel dx="1969" dy="1527" grid="1" gridSize="10" guides="1" tooltips="1" connect="1" arrows="1" fold="1" page="1" pageScale="1" pageWidth="850" pageHeight="1100" math="0" shadow="0" extFonts="Permanent Marker^https://fonts.googleapis.com/css?family=Permanent+Marker">
      <root>
        <mxCell id="0" />
        <mxCell id="1" parent="0" />
        <mxCell id="v55qjszRcYWThpsGTtGi-1" value="PASSAGEM" style="swimlane;fontStyle=0;childLayout=stackLayout;horizontal=1;startSize=30;horizontalStack=0;resizeParent=1;resizeParentMax=0;resizeLast=0;collapsible=1;marginBottom=0;whiteSpace=wrap;html=1;fillColor=#FFEE05;" vertex="1" parent="1">
          <mxGeometry x="110" y="-15" width="140" height="240" as="geometry" />
        </mxCell>
        <mxCell id="v55qjszRcYWThpsGTtGi-2" value="COD_PASSAGEM" style="text;strokeColor=none;fillColor=none;align=left;verticalAlign=middle;spacingLeft=4;spacingRight=4;overflow=hidden;points=[[0,0.5],[1,0.5]];portConstraint=eastwest;rotatable=0;whiteSpace=wrap;html=1;" vertex="1" parent="v55qjszRcYWThpsGTtGi-1">
          <mxGeometry y="30" width="140" height="30" as="geometry" />
        </mxCell>
        <mxCell id="v55qjszRcYWThpsGTtGi-4" value="COD_PASSAGEIRO" style="text;strokeColor=none;fillColor=none;align=left;verticalAlign=middle;spacingLeft=4;spacingRight=4;overflow=hidden;points=[[0,0.5],[1,0.5]];portConstraint=eastwest;rotatable=0;whiteSpace=wrap;html=1;" vertex="1" parent="v55qjszRcYWThpsGTtGi-1">
          <mxGeometry y="60" width="140" height="30" as="geometry" />
        </mxCell>
        <mxCell id="v55qjszRcYWThpsGTtGi-69" value="COD_AERONAVE" style="text;strokeColor=none;fillColor=none;align=left;verticalAlign=middle;spacingLeft=4;spacingRight=4;overflow=hidden;points=[[0,0.5],[1,0.5]];portConstraint=eastwest;rotatable=0;whiteSpace=wrap;html=1;" vertex="1" parent="v55qjszRcYWThpsGTtGi-1">
          <mxGeometry y="90" width="140" height="30" as="geometry" />
        </mxCell>
        <mxCell id="v55qjszRcYWThpsGTtGi-48" value="ORIGEM" style="text;strokeColor=none;fillColor=none;align=left;verticalAlign=middle;spacingLeft=4;spacingRight=4;overflow=hidden;points=[[0,0.5],[1,0.5]];portConstraint=eastwest;rotatable=0;whiteSpace=wrap;html=1;" vertex="1" parent="v55qjszRcYWThpsGTtGi-1">
          <mxGeometry y="120" width="140" height="30" as="geometry" />
        </mxCell>
        <mxCell id="v55qjszRcYWThpsGTtGi-49" value="DESTINO" style="text;strokeColor=none;fillColor=none;align=left;verticalAlign=middle;spacingLeft=4;spacingRight=4;overflow=hidden;points=[[0,0.5],[1,0.5]];portConstraint=eastwest;rotatable=0;whiteSpace=wrap;html=1;" vertex="1" parent="v55qjszRcYWThpsGTtGi-1">
          <mxGeometry y="150" width="140" height="30" as="geometry" />
        </mxCell>
        <mxCell id="v55qjszRcYWThpsGTtGi-50" value="DATAHORA" style="text;strokeColor=none;fillColor=none;align=left;verticalAlign=middle;spacingLeft=4;spacingRight=4;overflow=hidden;points=[[0,0.5],[1,0.5]];portConstraint=eastwest;rotatable=0;whiteSpace=wrap;html=1;" vertex="1" parent="v55qjszRcYWThpsGTtGi-1">
          <mxGeometry y="180" width="140" height="30" as="geometry" />
        </mxCell>
        <mxCell id="v55qjszRcYWThpsGTtGi-52" value="VALOR_TOTAL" style="text;strokeColor=none;fillColor=none;align=left;verticalAlign=middle;spacingLeft=4;spacingRight=4;overflow=hidden;points=[[0,0.5],[1,0.5]];portConstraint=eastwest;rotatable=0;whiteSpace=wrap;html=1;" vertex="1" parent="v55qjszRcYWThpsGTtGi-1">
          <mxGeometry y="210" width="140" height="30" as="geometry" />
        </mxCell>
        <mxCell id="v55qjszRcYWThpsGTtGi-5" value="ASSENTOS_PASSAGEM" style="swimlane;fontStyle=0;childLayout=stackLayout;horizontal=1;startSize=30;horizontalStack=0;resizeParent=1;resizeParentMax=0;resizeLast=0;collapsible=1;marginBottom=0;whiteSpace=wrap;html=1;fillColor=#FFEE05;" vertex="1" parent="1">
          <mxGeometry x="286.25" y="-45" width="182.5" height="120" as="geometry" />
        </mxCell>
        <mxCell id="v55qjszRcYWThpsGTtGi-6" value="COD_ASSENTOS_PASSAGEM" style="text;strokeColor=none;fillColor=none;align=left;verticalAlign=middle;spacingLeft=4;spacingRight=4;overflow=hidden;points=[[0,0.5],[1,0.5]];portConstraint=eastwest;rotatable=0;whiteSpace=wrap;html=1;" vertex="1" parent="v55qjszRcYWThpsGTtGi-5">
          <mxGeometry y="30" width="182.5" height="30" as="geometry" />
        </mxCell>
        <mxCell id="v55qjszRcYWThpsGTtGi-8" value="COD_ASSENTO" style="text;strokeColor=none;fillColor=none;align=left;verticalAlign=middle;spacingLeft=4;spacingRight=4;overflow=hidden;points=[[0,0.5],[1,0.5]];portConstraint=eastwest;rotatable=0;whiteSpace=wrap;html=1;" vertex="1" parent="v55qjszRcYWThpsGTtGi-5">
          <mxGeometry y="60" width="182.5" height="30" as="geometry" />
        </mxCell>
        <mxCell id="v55qjszRcYWThpsGTtGi-10" value="COD_PASSAGEM" style="text;strokeColor=none;fillColor=none;align=left;verticalAlign=middle;spacingLeft=4;spacingRight=4;overflow=hidden;points=[[0,0.5],[1,0.5]];portConstraint=eastwest;rotatable=0;whiteSpace=wrap;html=1;" vertex="1" parent="v55qjszRcYWThpsGTtGi-5">
          <mxGeometry y="90" width="182.5" height="30" as="geometry" />
        </mxCell>
        <mxCell id="v55qjszRcYWThpsGTtGi-9" value="" style="endArrow=none;html=1;rounded=0;entryX=1;entryY=0.5;entryDx=0;entryDy=0;exitX=0;exitY=0.5;exitDx=0;exitDy=0;" edge="1" parent="1" source="v55qjszRcYWThpsGTtGi-10" target="v55qjszRcYWThpsGTtGi-2">
          <mxGeometry width="50" height="50" relative="1" as="geometry">
            <mxPoint x="380" y="250" as="sourcePoint" />
            <mxPoint x="430" y="200" as="targetPoint" />
          </mxGeometry>
        </mxCell>
        <mxCell id="v55qjszRcYWThpsGTtGi-11" value="ESCALAS_PASSAGEM" style="swimlane;fontStyle=0;childLayout=stackLayout;horizontal=1;startSize=30;horizontalStack=0;resizeParent=1;resizeParentMax=0;resizeLast=0;collapsible=1;marginBottom=0;whiteSpace=wrap;html=1;fillColor=#FFEE05;" vertex="1" parent="1">
          <mxGeometry x="-100" y="-45" width="180" height="150" as="geometry" />
        </mxCell>
        <mxCell id="v55qjszRcYWThpsGTtGi-12" value="COD_ESCALAS_PASSAGEM" style="text;strokeColor=none;fillColor=none;align=left;verticalAlign=middle;spacingLeft=4;spacingRight=4;overflow=hidden;points=[[0,0.5],[1,0.5]];portConstraint=eastwest;rotatable=0;whiteSpace=wrap;html=1;" vertex="1" parent="v55qjszRcYWThpsGTtGi-11">
          <mxGeometry y="30" width="180" height="30" as="geometry" />
        </mxCell>
        <mxCell id="v55qjszRcYWThpsGTtGi-13" value="COD_PASSAGEM" style="text;strokeColor=none;fillColor=none;align=left;verticalAlign=middle;spacingLeft=4;spacingRight=4;overflow=hidden;points=[[0,0.5],[1,0.5]];portConstraint=eastwest;rotatable=0;whiteSpace=wrap;html=1;" vertex="1" parent="v55qjszRcYWThpsGTtGi-11">
          <mxGeometry y="60" width="180" height="30" as="geometry" />
        </mxCell>
        <mxCell id="v55qjszRcYWThpsGTtGi-72" value="LOCAL_ESCALA" style="text;strokeColor=none;fillColor=none;align=left;verticalAlign=middle;spacingLeft=4;spacingRight=4;overflow=hidden;points=[[0,0.5],[1,0.5]];portConstraint=eastwest;rotatable=0;whiteSpace=wrap;html=1;" vertex="1" parent="v55qjszRcYWThpsGTtGi-11">
          <mxGeometry y="90" width="180" height="30" as="geometry" />
        </mxCell>
        <mxCell id="v55qjszRcYWThpsGTtGi-73" value="QTD" style="text;strokeColor=none;fillColor=none;align=left;verticalAlign=middle;spacingLeft=4;spacingRight=4;overflow=hidden;points=[[0,0.5],[1,0.5]];portConstraint=eastwest;rotatable=0;whiteSpace=wrap;html=1;" vertex="1" parent="v55qjszRcYWThpsGTtGi-11">
          <mxGeometry y="120" width="180" height="30" as="geometry" />
        </mxCell>
        <mxCell id="v55qjszRcYWThpsGTtGi-14" value="" style="endArrow=none;html=1;rounded=0;entryX=0;entryY=0.5;entryDx=0;entryDy=0;exitX=1;exitY=0.5;exitDx=0;exitDy=0;" edge="1" parent="1" source="v55qjszRcYWThpsGTtGi-13" target="v55qjszRcYWThpsGTtGi-2">
          <mxGeometry width="50" height="50" relative="1" as="geometry">
            <mxPoint x="380" y="185" as="sourcePoint" />
            <mxPoint x="340" y="155" as="targetPoint" />
          </mxGeometry>
        </mxCell>
        <mxCell id="v55qjszRcYWThpsGTtGi-15" value="PRODUTO" style="swimlane;fontStyle=0;childLayout=stackLayout;horizontal=1;startSize=30;horizontalStack=0;resizeParent=1;resizeParentMax=0;resizeLast=0;collapsible=1;marginBottom=0;whiteSpace=wrap;html=1;fillColor=#FFEE05;" vertex="1" parent="1">
          <mxGeometry x="500" y="105" width="140" height="180" as="geometry" />
        </mxCell>
        <mxCell id="v55qjszRcYWThpsGTtGi-16" value="COD_PRODUTO" style="text;strokeColor=none;fillColor=none;align=left;verticalAlign=middle;spacingLeft=4;spacingRight=4;overflow=hidden;points=[[0,0.5],[1,0.5]];portConstraint=eastwest;rotatable=0;whiteSpace=wrap;html=1;" vertex="1" parent="v55qjszRcYWThpsGTtGi-15">
          <mxGeometry y="30" width="140" height="30" as="geometry" />
        </mxCell>
        <mxCell id="v55qjszRcYWThpsGTtGi-17" value="TIPO" style="text;strokeColor=none;fillColor=none;align=left;verticalAlign=middle;spacingLeft=4;spacingRight=4;overflow=hidden;points=[[0,0.5],[1,0.5]];portConstraint=eastwest;rotatable=0;whiteSpace=wrap;html=1;" vertex="1" parent="v55qjszRcYWThpsGTtGi-15">
          <mxGeometry y="60" width="140" height="30" as="geometry" />
        </mxCell>
        <mxCell id="v55qjszRcYWThpsGTtGi-18" value="CATEGORIA" style="text;strokeColor=none;fillColor=none;align=left;verticalAlign=middle;spacingLeft=4;spacingRight=4;overflow=hidden;points=[[0,0.5],[1,0.5]];portConstraint=eastwest;rotatable=0;whiteSpace=wrap;html=1;" vertex="1" parent="v55qjszRcYWThpsGTtGi-15">
          <mxGeometry y="90" width="140" height="30" as="geometry" />
        </mxCell>
        <mxCell id="v55qjszRcYWThpsGTtGi-19" value="QTD" style="text;strokeColor=none;fillColor=none;align=left;verticalAlign=middle;spacingLeft=4;spacingRight=4;overflow=hidden;points=[[0,0.5],[1,0.5]];portConstraint=eastwest;rotatable=0;whiteSpace=wrap;html=1;" vertex="1" parent="v55qjszRcYWThpsGTtGi-15">
          <mxGeometry y="120" width="140" height="30" as="geometry" />
        </mxCell>
        <mxCell id="v55qjszRcYWThpsGTtGi-20" value="PRECO" style="text;strokeColor=none;fillColor=none;align=left;verticalAlign=middle;spacingLeft=4;spacingRight=4;overflow=hidden;points=[[0,0.5],[1,0.5]];portConstraint=eastwest;rotatable=0;whiteSpace=wrap;html=1;" vertex="1" parent="v55qjszRcYWThpsGTtGi-15">
          <mxGeometry y="150" width="140" height="30" as="geometry" />
        </mxCell>
        <mxCell id="v55qjszRcYWThpsGTtGi-24" value="PRODUTOS_PASSAGEM" style="swimlane;fontStyle=0;childLayout=stackLayout;horizontal=1;startSize=30;horizontalStack=0;resizeParent=1;resizeParentMax=0;resizeLast=0;collapsible=1;marginBottom=0;whiteSpace=wrap;html=1;fillColor=#FFEE05;" vertex="1" parent="1">
          <mxGeometry x="280" y="105" width="195" height="120" as="geometry" />
        </mxCell>
        <mxCell id="v55qjszRcYWThpsGTtGi-25" value="COD_PRODUTOS_PASSAGEM" style="text;strokeColor=none;fillColor=none;align=left;verticalAlign=middle;spacingLeft=4;spacingRight=4;overflow=hidden;points=[[0,0.5],[1,0.5]];portConstraint=eastwest;rotatable=0;whiteSpace=wrap;html=1;" vertex="1" parent="v55qjszRcYWThpsGTtGi-24">
          <mxGeometry y="30" width="195" height="30" as="geometry" />
        </mxCell>
        <mxCell id="v55qjszRcYWThpsGTtGi-29" value="COD_PRODUTO" style="text;strokeColor=none;fillColor=none;align=left;verticalAlign=middle;spacingLeft=4;spacingRight=4;overflow=hidden;points=[[0,0.5],[1,0.5]];portConstraint=eastwest;rotatable=0;whiteSpace=wrap;html=1;" vertex="1" parent="v55qjszRcYWThpsGTtGi-24">
          <mxGeometry y="60" width="195" height="30" as="geometry" />
        </mxCell>
        <mxCell id="v55qjszRcYWThpsGTtGi-31" value="COD_PASSAGEM" style="text;strokeColor=none;fillColor=none;align=left;verticalAlign=middle;spacingLeft=4;spacingRight=4;overflow=hidden;points=[[0,0.5],[1,0.5]];portConstraint=eastwest;rotatable=0;whiteSpace=wrap;html=1;" vertex="1" parent="v55qjszRcYWThpsGTtGi-24">
          <mxGeometry y="90" width="195" height="30" as="geometry" />
        </mxCell>
        <mxCell id="v55qjszRcYWThpsGTtGi-30" value="" style="endArrow=none;html=1;rounded=0;entryX=0;entryY=0.5;entryDx=0;entryDy=0;exitX=1;exitY=0.5;exitDx=0;exitDy=0;" edge="1" parent="1" source="v55qjszRcYWThpsGTtGi-29" target="v55qjszRcYWThpsGTtGi-16">
          <mxGeometry width="50" height="50" relative="1" as="geometry">
            <mxPoint x="170" y="185" as="sourcePoint" />
            <mxPoint x="200" y="155" as="targetPoint" />
          </mxGeometry>
        </mxCell>
        <mxCell id="v55qjszRcYWThpsGTtGi-32" value="" style="endArrow=none;html=1;rounded=0;entryX=1;entryY=0.5;entryDx=0;entryDy=0;exitX=0;exitY=0.5;exitDx=0;exitDy=0;" edge="1" parent="1" source="v55qjszRcYWThpsGTtGi-31" target="v55qjszRcYWThpsGTtGi-2">
          <mxGeometry width="50" height="50" relative="1" as="geometry">
            <mxPoint x="420" y="185" as="sourcePoint" />
            <mxPoint x="340" y="155" as="targetPoint" />
          </mxGeometry>
        </mxCell>
        <mxCell id="v55qjszRcYWThpsGTtGi-33" value="TRIPULACAO_ESCALA" style="swimlane;fontStyle=0;childLayout=stackLayout;horizontal=1;startSize=30;horizontalStack=0;resizeParent=1;resizeParentMax=0;resizeLast=0;collapsible=1;marginBottom=0;whiteSpace=wrap;html=1;fillColor=#FFEE05;" vertex="1" parent="1">
          <mxGeometry x="-300" y="-45" width="180" height="120" as="geometry" />
        </mxCell>
        <mxCell id="v55qjszRcYWThpsGTtGi-34" value="COD_TRIPULACAO_ESCALA" style="text;strokeColor=none;fillColor=none;align=left;verticalAlign=middle;spacingLeft=4;spacingRight=4;overflow=hidden;points=[[0,0.5],[1,0.5]];portConstraint=eastwest;rotatable=0;whiteSpace=wrap;html=1;" vertex="1" parent="v55qjszRcYWThpsGTtGi-33">
          <mxGeometry y="30" width="180" height="30" as="geometry" />
        </mxCell>
        <mxCell id="v55qjszRcYWThpsGTtGi-83" value="COD_PASSAGEM" style="text;strokeColor=none;fillColor=none;align=left;verticalAlign=middle;spacingLeft=4;spacingRight=4;overflow=hidden;points=[[0,0.5],[1,0.5]];portConstraint=eastwest;rotatable=0;whiteSpace=wrap;html=1;" vertex="1" parent="v55qjszRcYWThpsGTtGi-33">
          <mxGeometry y="60" width="180" height="30" as="geometry" />
        </mxCell>
        <mxCell id="v55qjszRcYWThpsGTtGi-80" value="COD_FUNCIONARIO" style="text;strokeColor=none;fillColor=none;align=left;verticalAlign=middle;spacingLeft=4;spacingRight=4;overflow=hidden;points=[[0,0.5],[1,0.5]];portConstraint=eastwest;rotatable=0;whiteSpace=wrap;html=1;" vertex="1" parent="v55qjszRcYWThpsGTtGi-33">
          <mxGeometry y="90" width="180" height="30" as="geometry" />
        </mxCell>
        <mxCell id="v55qjszRcYWThpsGTtGi-36" value="PASSAGEIRO" style="swimlane;fontStyle=0;childLayout=stackLayout;horizontal=1;startSize=30;horizontalStack=0;resizeParent=1;resizeParentMax=0;resizeLast=0;collapsible=1;marginBottom=0;whiteSpace=wrap;html=1;fillColor=#FFEE05;" vertex="1" parent="1">
          <mxGeometry x="-240" y="160" width="140" height="150" as="geometry" />
        </mxCell>
        <mxCell id="v55qjszRcYWThpsGTtGi-37" value="COD_PASSAGEIRO" style="text;strokeColor=none;fillColor=none;align=left;verticalAlign=middle;spacingLeft=4;spacingRight=4;overflow=hidden;points=[[0,0.5],[1,0.5]];portConstraint=eastwest;rotatable=0;whiteSpace=wrap;html=1;" vertex="1" parent="v55qjszRcYWThpsGTtGi-36">
          <mxGeometry y="30" width="140" height="30" as="geometry" />
        </mxCell>
        <mxCell id="v55qjszRcYWThpsGTtGi-38" value="NOME" style="text;strokeColor=none;fillColor=none;align=left;verticalAlign=middle;spacingLeft=4;spacingRight=4;overflow=hidden;points=[[0,0.5],[1,0.5]];portConstraint=eastwest;rotatable=0;whiteSpace=wrap;html=1;" vertex="1" parent="v55qjszRcYWThpsGTtGi-36">
          <mxGeometry y="60" width="140" height="30" as="geometry" />
        </mxCell>
        <mxCell id="v55qjszRcYWThpsGTtGi-41" value="CPF" style="text;strokeColor=none;fillColor=none;align=left;verticalAlign=middle;spacingLeft=4;spacingRight=4;overflow=hidden;points=[[0,0.5],[1,0.5]];portConstraint=eastwest;rotatable=0;whiteSpace=wrap;html=1;" vertex="1" parent="v55qjszRcYWThpsGTtGi-36">
          <mxGeometry y="90" width="140" height="30" as="geometry" />
        </mxCell>
        <mxCell id="v55qjszRcYWThpsGTtGi-42" value="TELEFONE" style="text;strokeColor=none;fillColor=none;align=left;verticalAlign=middle;spacingLeft=4;spacingRight=4;overflow=hidden;points=[[0,0.5],[1,0.5]];portConstraint=eastwest;rotatable=0;whiteSpace=wrap;html=1;" vertex="1" parent="v55qjszRcYWThpsGTtGi-36">
          <mxGeometry y="120" width="140" height="30" as="geometry" />
        </mxCell>
        <mxCell id="v55qjszRcYWThpsGTtGi-43" value="" style="endArrow=none;html=1;rounded=0;entryX=0;entryY=0.5;entryDx=0;entryDy=0;exitX=1;exitY=0.5;exitDx=0;exitDy=0;" edge="1" parent="1" source="v55qjszRcYWThpsGTtGi-37" target="v55qjszRcYWThpsGTtGi-4">
          <mxGeometry width="50" height="50" relative="1" as="geometry">
            <mxPoint x="-20" y="165" as="sourcePoint" />
            <mxPoint x="120" y="135" as="targetPoint" />
            <Array as="points">
              <mxPoint x="-80" y="150" />
              <mxPoint x="80" y="150" />
            </Array>
          </mxGeometry>
        </mxCell>
        <mxCell id="v55qjszRcYWThpsGTtGi-45" value="" style="endArrow=none;html=1;rounded=0;entryX=1;entryY=0.5;entryDx=0;entryDy=0;exitX=0;exitY=0.5;exitDx=0;exitDy=0;" edge="1" parent="1" source="v55qjszRcYWThpsGTtGi-13" target="v55qjszRcYWThpsGTtGi-83">
          <mxGeometry width="50" height="50" relative="1" as="geometry">
            <mxPoint x="-100" y="60" as="sourcePoint" />
            <mxPoint x="130" y="145" as="targetPoint" />
          </mxGeometry>
        </mxCell>
        <mxCell id="v55qjszRcYWThpsGTtGi-53" value="ASSENTO" style="swimlane;fontStyle=0;childLayout=stackLayout;horizontal=1;startSize=30;horizontalStack=0;resizeParent=1;resizeParentMax=0;resizeLast=0;collapsible=1;marginBottom=0;whiteSpace=wrap;html=1;fillColor=#FFEE05;" vertex="1" parent="1">
          <mxGeometry x="490" y="-45" width="160" height="120" as="geometry" />
        </mxCell>
        <mxCell id="v55qjszRcYWThpsGTtGi-54" value="COD_ASSENTO" style="text;strokeColor=none;fillColor=none;align=left;verticalAlign=middle;spacingLeft=4;spacingRight=4;overflow=hidden;points=[[0,0.5],[1,0.5]];portConstraint=eastwest;rotatable=0;whiteSpace=wrap;html=1;" vertex="1" parent="v55qjszRcYWThpsGTtGi-53">
          <mxGeometry y="30" width="160" height="30" as="geometry" />
        </mxCell>
        <mxCell id="v55qjszRcYWThpsGTtGi-56" value="CATEGORIA" style="text;strokeColor=none;fillColor=none;align=left;verticalAlign=middle;spacingLeft=4;spacingRight=4;overflow=hidden;points=[[0,0.5],[1,0.5]];portConstraint=eastwest;rotatable=0;whiteSpace=wrap;html=1;" vertex="1" parent="v55qjszRcYWThpsGTtGi-53">
          <mxGeometry y="60" width="160" height="30" as="geometry" />
        </mxCell>
        <mxCell id="v55qjszRcYWThpsGTtGi-57" value="VALOR" style="text;strokeColor=none;fillColor=none;align=left;verticalAlign=middle;spacingLeft=4;spacingRight=4;overflow=hidden;points=[[0,0.5],[1,0.5]];portConstraint=eastwest;rotatable=0;whiteSpace=wrap;html=1;" vertex="1" parent="v55qjszRcYWThpsGTtGi-53">
          <mxGeometry y="90" width="160" height="30" as="geometry" />
        </mxCell>
        <mxCell id="v55qjszRcYWThpsGTtGi-58" value="" style="endArrow=none;html=1;rounded=0;entryX=0;entryY=0.5;entryDx=0;entryDy=0;exitX=1;exitY=0.5;exitDx=0;exitDy=0;" edge="1" parent="1" source="v55qjszRcYWThpsGTtGi-8" target="v55qjszRcYWThpsGTtGi-54">
          <mxGeometry width="50" height="50" relative="1" as="geometry">
            <mxPoint x="308" y="115" as="sourcePoint" />
            <mxPoint x="260" y="55" as="targetPoint" />
          </mxGeometry>
        </mxCell>
        <mxCell id="v55qjszRcYWThpsGTtGi-59" value="AERONAVE" style="swimlane;fontStyle=0;childLayout=stackLayout;horizontal=1;startSize=30;horizontalStack=0;resizeParent=1;resizeParentMax=0;resizeLast=0;collapsible=1;marginBottom=0;whiteSpace=wrap;html=1;fillColor=#FFEE05;" vertex="1" parent="1">
          <mxGeometry x="-70" y="160" width="140" height="180" as="geometry" />
        </mxCell>
        <mxCell id="v55qjszRcYWThpsGTtGi-60" value="COD_AERONAVE" style="text;strokeColor=none;fillColor=none;align=left;verticalAlign=middle;spacingLeft=4;spacingRight=4;overflow=hidden;points=[[0,0.5],[1,0.5]];portConstraint=eastwest;rotatable=0;whiteSpace=wrap;html=1;" vertex="1" parent="v55qjszRcYWThpsGTtGi-59">
          <mxGeometry y="30" width="140" height="30" as="geometry" />
        </mxCell>
        <mxCell id="v55qjszRcYWThpsGTtGi-71" value="MODELO" style="text;strokeColor=none;fillColor=none;align=left;verticalAlign=middle;spacingLeft=4;spacingRight=4;overflow=hidden;points=[[0,0.5],[1,0.5]];portConstraint=eastwest;rotatable=0;whiteSpace=wrap;html=1;" vertex="1" parent="v55qjszRcYWThpsGTtGi-59">
          <mxGeometry y="60" width="140" height="30" as="geometry" />
        </mxCell>
        <mxCell id="v55qjszRcYWThpsGTtGi-61" value="TIPO" style="text;strokeColor=none;fillColor=none;align=left;verticalAlign=middle;spacingLeft=4;spacingRight=4;overflow=hidden;points=[[0,0.5],[1,0.5]];portConstraint=eastwest;rotatable=0;whiteSpace=wrap;html=1;" vertex="1" parent="v55qjszRcYWThpsGTtGi-59">
          <mxGeometry y="90" width="140" height="30" as="geometry" />
        </mxCell>
        <mxCell id="v55qjszRcYWThpsGTtGi-62" value="COMBUSTIVEL" style="text;strokeColor=none;fillColor=none;align=left;verticalAlign=middle;spacingLeft=4;spacingRight=4;overflow=hidden;points=[[0,0.5],[1,0.5]];portConstraint=eastwest;rotatable=0;whiteSpace=wrap;html=1;" vertex="1" parent="v55qjszRcYWThpsGTtGi-59">
          <mxGeometry y="120" width="140" height="30" as="geometry" />
        </mxCell>
        <mxCell id="v55qjszRcYWThpsGTtGi-63" value="AUTONOMIA" style="text;strokeColor=none;fillColor=none;align=left;verticalAlign=middle;spacingLeft=4;spacingRight=4;overflow=hidden;points=[[0,0.5],[1,0.5]];portConstraint=eastwest;rotatable=0;whiteSpace=wrap;html=1;" vertex="1" parent="v55qjszRcYWThpsGTtGi-59">
          <mxGeometry y="150" width="140" height="30" as="geometry" />
        </mxCell>
        <mxCell id="v55qjszRcYWThpsGTtGi-70" value="" style="endArrow=none;html=1;rounded=0;entryX=0;entryY=0.5;entryDx=0;entryDy=0;exitX=1;exitY=0.5;exitDx=0;exitDy=0;" edge="1" parent="1" source="v55qjszRcYWThpsGTtGi-60" target="v55qjszRcYWThpsGTtGi-69">
          <mxGeometry width="50" height="50" relative="1" as="geometry">
            <mxPoint x="296" y="115" as="sourcePoint" />
            <mxPoint x="260" y="55" as="targetPoint" />
          </mxGeometry>
        </mxCell>
        <mxCell id="v55qjszRcYWThpsGTtGi-75" value="FUNCIONARIO" style="swimlane;fontStyle=0;childLayout=stackLayout;horizontal=1;startSize=30;horizontalStack=0;resizeParent=1;resizeParentMax=0;resizeLast=0;collapsible=1;marginBottom=0;whiteSpace=wrap;html=1;fillColor=#FFEE05;" vertex="1" parent="1">
          <mxGeometry x="-500" y="-45" width="180" height="150" as="geometry" />
        </mxCell>
        <mxCell id="v55qjszRcYWThpsGTtGi-76" value="COD_FUNCIONARIO" style="text;strokeColor=none;fillColor=none;align=left;verticalAlign=middle;spacingLeft=4;spacingRight=4;overflow=hidden;points=[[0,0.5],[1,0.5]];portConstraint=eastwest;rotatable=0;whiteSpace=wrap;html=1;" vertex="1" parent="v55qjszRcYWThpsGTtGi-75">
          <mxGeometry y="30" width="180" height="30" as="geometry" />
        </mxCell>
        <mxCell id="v55qjszRcYWThpsGTtGi-78" value="NOME" style="text;strokeColor=none;fillColor=none;align=left;verticalAlign=middle;spacingLeft=4;spacingRight=4;overflow=hidden;points=[[0,0.5],[1,0.5]];portConstraint=eastwest;rotatable=0;whiteSpace=wrap;html=1;" vertex="1" parent="v55qjszRcYWThpsGTtGi-75">
          <mxGeometry y="60" width="180" height="30" as="geometry" />
        </mxCell>
        <mxCell id="v55qjszRcYWThpsGTtGi-79" value="EMAIL" style="text;strokeColor=none;fillColor=none;align=left;verticalAlign=middle;spacingLeft=4;spacingRight=4;overflow=hidden;points=[[0,0.5],[1,0.5]];portConstraint=eastwest;rotatable=0;whiteSpace=wrap;html=1;" vertex="1" parent="v55qjszRcYWThpsGTtGi-75">
          <mxGeometry y="90" width="180" height="30" as="geometry" />
        </mxCell>
        <mxCell id="v55qjszRcYWThpsGTtGi-81" value="FUNCAO" style="text;strokeColor=none;fillColor=none;align=left;verticalAlign=middle;spacingLeft=4;spacingRight=4;overflow=hidden;points=[[0,0.5],[1,0.5]];portConstraint=eastwest;rotatable=0;whiteSpace=wrap;html=1;" vertex="1" parent="v55qjszRcYWThpsGTtGi-75">
          <mxGeometry y="120" width="180" height="30" as="geometry" />
        </mxCell>
        <mxCell id="v55qjszRcYWThpsGTtGi-82" value="" style="endArrow=none;html=1;rounded=0;entryX=1;entryY=0.5;entryDx=0;entryDy=0;exitX=0;exitY=0.5;exitDx=0;exitDy=0;" edge="1" parent="1" source="v55qjszRcYWThpsGTtGi-80" target="v55qjszRcYWThpsGTtGi-76">
          <mxGeometry width="50" height="50" relative="1" as="geometry">
            <mxPoint x="-90" y="70" as="sourcePoint" />
            <mxPoint x="-110" y="10" as="targetPoint" />
          </mxGeometry>
        </mxCell>
      </root>
    </mxGraphModel>
  </diagram>
</mxfile>
